<?xml version="1.0" encoding="iso-8859-1"?>
<!-- Generator: Adobe Illustrator 19.0.0, SVG Export Plug-In . SVG Version: 6.00 Build 0)  -->
<svg version="1.1" id="Layer_1" xmlns="http://www.w3.org/2000/svg" xmlns:xlink="http://www.w3.org/1999/xlink" x="0px" y="0px"
	 viewBox="0 0 390.853 390.853" style="enable-background:new 0 0 390.853 390.853;" xml:space="preserve">
<g>
	<path style="fill:#FFC10D;" d="M344.436,369.196v-67.749c0,0,0,0-0.517-0.517l-55.273-27.087l-48.226,67.749
		c-3.814,4.848-10.861,6.529-16.291,1.616l-28.703-25.535l-29.285,25.988c-5.43,4.331-11.895,3.814-16.291-1.616l-47.709-68.267
		l-55.855,27.087c0,0.517,0,0.517,0,0.517v67.75h298.149V369.196z"/>
	<path style="fill:#FFC10D;" d="M241.519,249.406c-1.616-2.198-2.715-4.331-2.715-7.046v-4.331
		c-12.994,8.145-27.669,12.994-43.378,12.994c-15.709,0-30.319-4.848-43.378-12.994v4.331c0,2.715-1.099,5.43-3.232,7.564
		l46.61,40.663L241.519,249.406z"/>
</g>
<g>
	<path style="fill:#FFFFFF;" d="M264.275,161.034c-18.941,8.663-43.895,13.576-71.564,13.576c-22.238,0-47.709-3.232-66.651-11.378
		c8.145,37.947,35.749,66.651,68.848,66.651C229.042,229.366,257.228,200.081,264.275,161.034z"/>
	<polygon style="fill:#FFFFFF;" points="230.141,319.289 267.507,266.214 259.943,261.883 212.752,304.162 	"/>
	<polygon style="fill:#FFFFFF;" points="123.345,265.115 160.711,319.289 178.101,304.162 129.293,261.883 	"/>
</g>
<g>
	<path style="fill:#56ACE0;" d="M257.228,140.477c-16.291,7.564-38.465,11.895-63.935,11.895c-27.087,0-49.325-5.43-61.802-11.378
		C152.63,129.616,205.188,110.093,257.228,140.477z"/>
	<path style="fill:#56ACE0;" d="M265.891,92.251v29.285c-46.093-26.053-98.651-22.756-141.446-0.517V92.315
		C173.188,75.442,220.38,75.442,265.891,92.251z"/>
	<path style="fill:#56ACE0;" d="M296.21,79.774c0,5.43-1.099,12.477-8.145,18.424c0-7.564,0-13.576,0-13.576
		c0-4.331-2.715-8.145-6.529-10.279c-23.855-9.762-48.808-15.192-73.697-16.808V43.442c0-5.947-4.848-10.861-10.861-10.861
		c-5.947,0-10.861,4.848-10.861,10.861v14.61c-24.954,1.099-50.424,6.529-75.895,16.291c-4.331,1.616-7.046,5.43-7.046,10.279
		c0,0,0,3.232,0,8.663c-3.232-4.331-3.814-9.244-3.814-12.994c-0.517-31.418,44.994-57.988,98.069-57.988
		C251.216,22.303,296.21,48.873,296.21,79.774z"/>
</g>
<path style="fill:#194F82;" d="M353.681,281.406l-93.22-45.576v-16.808c16.808-20.04,27.669-47.709,27.669-78.61
	c0-0.517,0-8.145,0-17.907c24.372-11.378,29.802-29.802,29.802-43.378C317.931,34.715,265.374,0,197.624,0
	S77.317,35.232,77.317,79.644c0,12.477,4.848,29.285,25.471,41.18c0,10.861,0,19.523,0,20.04c0,30.901,10.861,58.505,27.669,78.61
	v16.808l-93.285,45.123c-7.564,3.814-12.477,11.378-12.477,20.04v78.545c0,5.947,4.848,10.861,10.861,10.861h319.741
	c5.947,0,10.861-4.848,10.861-10.861v-78.545C366.158,292.784,361.244,285.156,353.681,281.406z M197.624,22.303
	c53.657,0,98.65,26.57,98.65,57.471c0,5.43-1.099,12.477-8.145,18.424c0-7.564,0-13.576,0-13.576c0-4.331-2.715-8.145-6.529-10.279
	c-23.855-9.762-48.808-15.192-73.697-16.808V43.442c0-5.947-4.848-10.861-10.861-10.861c-5.947,0-10.861,4.848-10.861,10.861v14.61
	c-24.954,1.099-50.424,6.529-75.895,16.291c-4.331,1.616-7.046,5.43-7.046,10.279c0,0,0,3.232,0,8.663
	c-3.232-4.331-3.814-9.244-3.814-12.994C98.974,48.873,144.485,22.303,197.624,22.303z M126.578,162.715
	c18.941,8.145,44.412,11.378,66.651,11.378c27.669,0,52.558-4.848,71.564-13.576c-7.564,39.046-35.232,68.267-68.848,68.267
	C162.392,229.366,134.723,201.18,126.578,162.715z M124.444,92.251c48.808-16.808,95.935-16.808,141.446,0v29.285
	c-46.093-25.988-98.651-22.756-141.446-0.517V92.251z M257.228,140.477c-16.291,7.564-38.465,11.895-63.935,11.895
	c-27.087,0-49.325-5.43-61.802-11.378C152.63,129.616,205.188,110.093,257.228,140.477z M178.101,304.162l-16.808,15.192
	l-37.947-54.174l5.947-3.232L178.101,304.162z M148.816,250.505c2.198-2.198,3.232-4.848,3.232-7.564v-4.331
	c12.994,8.145,27.669,12.994,43.378,12.994s30.319-4.848,43.378-12.994v4.331c0,2.715,1.099,4.848,2.715,7.046l-46.093,40.598
	L148.816,250.505z M267.507,266.214l-37.947,53.139l-17.325-15.192l47.127-42.279L267.507,266.214z M46.933,300.865l55.855-27.087
	l47.709,68.267c4.331,5.43,10.279,6.529,16.291,1.616l29.285-25.988l29.285,25.988c5.43,4.331,12.477,3.232,16.291-1.616
	l48.226-67.749l55.273,27.087c-0.517,0-0.517,0-0.517,0v67.749H46.416v-67.685C46.416,301.446,46.416,301.446,46.933,300.865z"/>
<g>
</g>
<g>
</g>
<g>
</g>
<g>
</g>
<g>
</g>
<g>
</g>
<g>
</g>
<g>
</g>
<g>
</g>
<g>
</g>
<g>
</g>
<g>
</g>
<g>
</g>
<g>
</g>
<g>
</g>
</svg>
